<?xml version="1.0" encoding="UTF-8" standalone="no"?>
<svg
   width="18.061098"
   height="20.694471"
   viewBox="0 0 18.061098 20.694471"
   fill="none"
   version="1.1"
   id="svg22"
   sodipodi:docname="nodejs.svg"
   xmlns:inkscape="http://www.inkscape.org/namespaces/inkscape"
   xmlns:sodipodi="http://sodipodi.sourceforge.net/DTD/sodipodi-0.dtd"
   xmlns="http://www.w3.org/2000/svg"
   xmlns:svg="http://www.w3.org/2000/svg">
  <sodipodi:namedview
     id="namedview22"
     pagecolor="#ffffff"
     bordercolor="#000000"
     borderopacity="0.25"
     inkscape:showpageshadow="2"
     inkscape:pageopacity="0.0"
     inkscape:pagecheckerboard="0"
     inkscape:deskcolor="#d1d1d1" />
  <g
     clip-path="url(#clip0_8323_10753)"
     id="g10"
     transform="translate(-22.211901,-11.917974)">
    <path
       d="m 31.7207,12.0513 c -0.3062,-0.1732 -0.6697,-0.1732 -0.9758,0 l -8.0547,4.6781 c -0.3061,0.1733 -0.4783,0.5005 -0.4783,0.8471 v 9.3753 c 0,0.3466 0.1913,0.6738 0.4783,0.8471 l 8.0547,4.6781 c 0.3061,0.1732 0.6696,0.1732 0.9758,0 l 8.0546,-4.6781 c 0.3062,-0.1733 0.4783,-0.5005 0.4783,-0.8471 v -9.3753 c 0,-0.3466 -0.1913,-0.6738 -0.4783,-0.8471 z"
       fill="url(#paint0_linear_8323_10753)"
       id="path8"
       style="fill:url(#paint0_linear_8323_10753)" />
    <path
       d="m 39.7946,16.7294 -8.0929,-4.6781 c -0.0765,-0.0385 -0.1722,-0.077 -0.2487,-0.0962 l -9.0687,15.6128 c 0.0765,0.0962 0.1722,0.1732 0.2678,0.231 l 8.093,4.6781 c 0.2296,0.1347 0.4974,0.1732 0.7461,0.0962 l 8.5139,-15.6705 c -0.0574,-0.077 -0.1339,-0.1348 -0.2105,-0.1733 z"
       fill="url(#paint1_linear_8323_10753)"
       id="path9"
       style="fill:url(#paint1_linear_8323_10753)" />
    <path
       d="m 39.7947,27.7986 c 0.2296,-0.1348 0.4018,-0.3658 0.4783,-0.6161 L 31.4147,11.9355 C 31.1852,11.897 30.9364,11.9162 30.726,12.051 l -8.0356,4.6588 8.6669,15.9016 c 0.1148,-0.0193 0.2488,-0.0578 0.3636,-0.1155 z"
       fill="url(#paint2_linear_8323_10753)"
       id="path10"
       style="fill:url(#paint2_linear_8323_10753)" />
  </g>
  <defs
     id="defs22">
    <linearGradient
       id="paint0_linear_8323_10753"
       x1="34.513199"
       y1="15.5354"
       x2="27.1574"
       y2="30.4484"
       gradientUnits="userSpaceOnUse">
      <stop
         stop-color="#3F873F"
         id="stop10" />
      <stop
         offset="0.3296"
         stop-color="#3F8B3D"
         id="stop11" />
      <stop
         offset="0.6367"
         stop-color="#3E9638"
         id="stop12" />
      <stop
         offset="0.9341"
         stop-color="#3DA92E"
         id="stop13" />
      <stop
         offset="1"
         stop-color="#3DAE2B"
         id="stop14" />
    </linearGradient>
    <linearGradient
       id="paint1_linear_8323_10753"
       x1="30.008801"
       y1="23.3589"
       x2="50.532799"
       y2="8.2884102"
       gradientUnits="userSpaceOnUse">
      <stop
         offset="0.1376"
         stop-color="#3F873F"
         id="stop15" />
      <stop
         offset="0.4016"
         stop-color="#52A044"
         id="stop16" />
      <stop
         offset="0.7129"
         stop-color="#64B749"
         id="stop17" />
      <stop
         offset="0.9081"
         stop-color="#6ABF4B"
         id="stop18" />
    </linearGradient>
    <linearGradient
       id="paint2_linear_8323_10753"
       x1="21.9168"
       y1="22.260799"
       x2="40.554901"
       y2="22.260799"
       gradientUnits="userSpaceOnUse">
      <stop
         offset="0.0919165"
         stop-color="#6ABF4B"
         id="stop19" />
      <stop
         offset="0.2871"
         stop-color="#64B749"
         id="stop20" />
      <stop
         offset="0.5984"
         stop-color="#52A044"
         id="stop21" />
      <stop
         offset="0.8624"
         stop-color="#3F873F"
         id="stop22" />
    </linearGradient>
    <clipPath
       id="clip0_8323_10753">
      <rect
         width="111"
         height="33"
         fill="#ffffff"
         id="rect22"
         x="0"
         y="0" />
    </clipPath>
  </defs>
</svg>
